<svg width="128" height="26" viewBox="0 0 128 26" fill="none" xmlns="http://www.w3.org/2000/svg">
<path d="M16.2835 11.2505C16.2823 11.4747 16.233 11.6733 16.232 11.8741C16.2173 15.1054 16.2477 19.4216 16.2345 22.6524H13.0219C12.4297 22.6524 11.5873 21.8772 11.2064 21.451C9.52365 19.5678 7.93895 17.2983 6.32581 15.3155C5.74141 14.5972 5.08836 13.7186 4.46228 13.0612C4.41519 13.0118 4.39827 12.967 4.31612 12.985V22.6524H0V5.62183H3.31066C3.67802 5.62183 4.30287 5.98247 4.5844 6.22441C7.09511 9.15516 9.51409 12.1756 11.9922 15.1386C12.0042 12.5047 12.0596 8.77609 12.0165 6.14137C12.1619 6.04269 12.0883 6.11006 12.128 6.20097C12.8289 7.8036 13.4332 9.08815 14.7623 10.2743C15.1846 10.6512 15.7509 11.08 16.2835 11.2505Z" fill="white"/>
<path d="M32.0271 11.332C32.3451 12.0039 32.6012 12.7087 32.9099 13.3852C32.3763 13.574 31.8402 13.8059 31.3259 14.0494C31.2735 14.0742 31.2504 14.1333 31.2421 14.137C29.4923 14.9653 27.7335 15.7832 25.9781 16.6002C25.5921 16.7798 22.8315 17.9551 22.7572 18.1197C22.7185 18.2053 22.8139 18.196 22.8489 18.2233C22.9873 18.331 23.2229 18.4578 23.3843 18.5304C25.136 19.3198 26.9647 18.7691 28.3238 17.4953C29.2027 18.4498 30.0203 19.4688 30.9468 20.3765C31.0169 20.4451 31.1749 20.4456 31.0635 20.5528C28.4089 23.1101 24.378 23.7468 21.1362 21.9786C16.3294 19.3566 15.6199 12.5359 19.6173 8.80195C23.644 5.04046 29.6885 6.39339 32.0268 11.3322L32.0271 11.332ZM27.4655 11.6335C25.6767 10.346 23.3693 10.3467 21.9247 12.1597C21.3356 12.8988 21.0568 13.7952 20.9918 14.7378L27.4655 11.6335Z" fill="white"/>
<path d="M32.0279 11.3315C32.1468 11.3583 32.1292 11.2696 32.1662 11.1998C34.5891 6.6273 39.7405 5.21176 44.0174 8.07615C44.1219 8.14603 44.5542 8.36066 44.5312 8.4944C44.5216 8.55025 43.8786 9.19616 43.7741 9.32715C43.5529 9.60464 43.1289 10.1842 43.0019 10.4972C42.9737 10.5666 42.9383 10.6198 42.9233 10.6386C42.887 10.6844 42.8609 10.7096 42.8145 10.7642C42.7983 10.7835 42.6433 11.0868 42.6134 11.1472C42.4984 11.3786 42.3885 11.6791 42.3272 11.9326C42.159 11.9776 42.1931 11.8559 42.1021 11.7898C40.4976 10.6222 38.6311 10.2871 36.9461 11.5201C34.6701 13.1858 34.7907 16.7257 37.2036 18.193C38.8964 19.2224 40.7663 18.848 42.2534 17.6426C42.7846 18.711 43.3781 19.7982 44.1922 20.673C44.2825 20.7699 44.7036 21.0792 44.7202 21.1093C44.747 21.1574 44.7335 21.2152 44.7337 21.2673C42.6669 22.6718 40.2454 23.3916 37.7652 22.8289C34.275 22.0369 31.4129 18.8926 31.2932 15.1629C31.2819 14.8115 31.4109 14.421 31.2437 14.1365C31.2517 14.1325 31.275 14.0737 31.3275 14.0489C31.8418 13.8054 32.3779 13.5735 32.9115 13.3847C32.6025 12.7082 32.3467 12.0034 32.0286 11.3315H32.0279Z" fill="url(#paint0_linear_459_936)"/>
<path d="M12.0162 6.66899C12.0128 6.46137 12.0206 6.24498 12.0179 6.04062C12.0152 5.84477 11.9252 5.62988 11.9672 5.41675H16.2833C16.275 7.5363 16.2943 9.65861 16.2833 11.7782C15.7506 11.6076 15.1844 11.1791 14.7621 10.8022C13.4329 9.61578 12.8287 8.33148 12.1278 6.72885C12.0881 6.63794 12.1616 6.57032 12.0162 6.66924V6.66899Z" fill="url(#paint1_linear_459_936)"/>
<path d="M50.0773 6.67334C50.0201 7.14193 49.9841 7.6824 49.8772 8.13797C49.8409 8.29224 49.6974 8.74556 49.6329 8.94967C49.2636 10.1195 48.5948 11.1491 47.968 12.1832C47.8844 12.2764 47.6919 12.5278 47.6247 12.634L45.1724 9.27801C46.4446 7.85897 48.1708 6.83538 50.077 6.67334H50.0773Z" fill="url(#paint2_linear_459_936)"/>
<rect x="108.8" y="2.16675" width="4.66667" height="4.0625" fill="url(#paint3_linear_459_936)"/>
<path fill-rule="evenodd" clip-rule="evenodd" d="M50.0777 6.67248C55.1155 6.24433 59.3599 9.83735 59.0543 15.1647C58.8303 19.0691 55.4497 22.5184 51.6236 22.7535C44.3515 23.2003 40.2289 14.7905 45.1725 9.27698L47.6246 12.6334C45.2329 16.4211 50.284 20.7112 53.7789 17.5905C56.8633 14.8362 54.0329 9.941 50.1744 10.8541C49.6816 10.9709 49.2317 11.3251 48.8014 11.4313C48.7635 11.4402 48.6872 11.4238 48.6412 11.4254C48.6875 11.4239 48.7637 11.4405 48.8014 11.4313C48.7727 11.5239 48.7565 11.5785 48.6901 11.5875L48.6051 11.5817C48.5198 11.7576 48.1318 12.0004 47.9684 12.1822C48.5952 11.1479 49.2638 10.1184 49.6334 8.94885C49.6979 8.74488 49.8411 8.29191 49.8776 8.13733C49.9845 7.68181 50.0204 7.14104 50.0777 6.67248Z" fill="white"/>
<path fill-rule="evenodd" clip-rule="evenodd" d="M84.4775 7.48441C84.6138 7.3885 84.755 7.29794 84.9012 7.2129C85.8347 6.66156 86.8727 6.38989 88.0005 6.38989C89.1421 6.3899 90.1811 6.64918 91.0996 7.18335C92.0137 7.71493 92.7334 8.45982 93.2524 9.40618C93.7769 10.3428 94.0285 11.4183 94.0285 12.6121V22.1433H89.5783V13.3212C89.5783 12.527 89.3325 11.9169 88.862 11.438L88.8583 11.4343L88.8548 11.4305C88.4064 10.959 87.8219 10.7095 87.0425 10.7095C86.5181 10.7095 86.0746 10.8253 85.6952 11.0415C85.3126 11.2596 85.0186 11.5588 84.8041 11.9485C84.5915 12.335 84.4775 12.7869 84.4775 13.3212V22.1433H80.0273V2.1665H84.4775V7.48441ZM93.2851 11.3361C93.2969 11.398 93.3078 11.4605 93.3178 11.5235C93.3029 11.429 93.2858 11.3357 93.2668 11.2436L93.2851 11.3361ZM92.5211 9.40805C92.5846 9.50802 92.6454 9.6109 92.7034 9.71671L92.6608 9.6403C92.6158 9.56119 92.5692 9.48381 92.5211 9.40805ZM85.2135 7.76677L85.1379 7.81165C85.1629 7.79651 85.1881 7.78154 85.2135 7.76677ZM85.8558 7.44365C85.8008 7.46673 85.7461 7.4907 85.6918 7.5157C85.6647 7.52821 85.6376 7.54099 85.6107 7.55397C85.6915 7.51504 85.7733 7.47825 85.8558 7.44365Z" fill="white"/>
<path d="M101.05 21.8011C99.7918 21.8011 98.6499 21.4761 97.6242 20.8261C96.6178 20.1761 95.8146 19.2996 95.2147 18.1966C94.6341 17.0739 94.3438 15.8232 94.3438 14.4445C94.3438 13.046 94.6341 11.7953 95.2147 10.6923C95.8146 9.56964 96.6178 8.6833 97.6242 8.03332C98.6499 7.36365 99.7918 7.02881 101.05 7.02881C102.114 7.02881 103.053 7.26516 103.866 7.73788C104.698 8.19089 105.356 8.82118 105.84 9.62873C106.324 10.4363 106.565 11.3522 106.565 12.3764V16.4535C106.565 17.4777 106.324 18.3936 105.84 19.2012C105.375 20.0087 104.727 20.6488 103.895 21.1215C103.062 21.5746 102.114 21.8011 101.05 21.8011ZM101.572 18.7284C102.753 18.7284 103.701 18.3247 104.417 17.5171C105.153 16.7096 105.52 15.6755 105.52 14.4149C105.52 13.568 105.356 12.8195 105.027 12.1696C104.698 11.5196 104.233 11.0173 103.633 10.6628C103.053 10.2886 102.366 10.1014 101.572 10.1014C100.798 10.1014 100.111 10.2886 99.5111 10.6628C98.9305 11.0173 98.466 11.5196 98.1177 12.1696C97.7887 12.8195 97.6242 13.568 97.6242 14.4149C97.6242 15.2619 97.7887 16.0103 98.1177 16.6603C98.466 17.3103 98.9305 17.8224 99.5111 18.1966C100.111 18.5512 100.798 18.7284 101.572 18.7284ZM105.317 21.5056V17.6944L105.869 14.2377L105.317 10.8105V7.32425H108.511V21.5056H105.317Z" fill="url(#paint4_linear_459_936)"/>
<path fill-rule="evenodd" clip-rule="evenodd" d="M121.972 6.39014C123.128 6.39015 124.177 6.69658 125.099 7.31911C125.999 7.90801 126.709 8.68519 127.224 9.64279L127.271 9.7308C127.754 10.6421 128 11.6052 128 12.6123V22.1435H123.55V13.3214C123.55 12.5272 123.304 11.9171 122.833 11.4383L122.83 11.4345L122.826 11.4308C122.378 10.9593 121.793 10.7098 121.014 10.7098C120.489 10.7098 120.046 10.8255 119.666 11.0417C119.284 11.2598 118.99 11.559 118.775 11.9488C118.563 12.3352 118.449 12.7871 118.449 13.3214V22.1435H113.999V6.68558H118.449V7.48466C118.585 7.38876 118.726 7.29818 118.872 7.21315C119.806 6.66182 120.844 6.39014 121.972 6.39014ZM119.359 10.4851C119.31 10.5128 119.263 10.5418 119.217 10.5716C119.234 10.5604 119.252 10.549 119.269 10.5381L119.359 10.4851ZM120.135 10.1748C120.066 10.1921 119.999 10.2115 119.932 10.2331C120.032 10.2007 120.135 10.1733 120.24 10.1507L120.135 10.1748ZM124.758 7.85565C124.908 7.95339 125.051 8.05676 125.189 8.16581C125.075 8.07532 124.957 7.98871 124.834 7.90601L124.758 7.85565ZM121.972 7.0284C122.133 7.0284 122.292 7.03493 122.448 7.0481C122.323 7.03759 122.197 7.03127 122.069 7.02915C122.037 7.02861 122.004 7.0284 121.972 7.0284Z" fill="white"/>
<path d="M113.554 22.144H109.104V6.68604H113.554V22.144Z" fill="white"/>
<path d="M72.6327 22.8844C71.2559 22.8844 69.9748 22.6454 68.7897 22.1675C67.622 21.6718 66.5937 20.9815 65.7048 20.0964C64.8333 19.2114 64.1536 18.1847 63.6656 17.0164C63.1776 15.8305 62.9336 14.556 62.9336 13.193C62.9336 11.83 63.1776 10.5644 63.6656 9.39607C64.1536 8.2101 64.8333 7.18343 65.7048 6.31607C66.5762 5.44871 67.5958 4.77607 68.7635 4.29814C69.9487 3.8025 71.2297 3.55469 72.6066 3.55469C74.0706 3.55469 75.3691 3.79365 76.502 4.27158C77.6523 4.74952 78.6544 5.40446 79.5084 6.23641L76.7634 9.0509C76.2754 8.51987 75.6828 8.10389 74.9856 7.80297C74.3059 7.50205 73.5129 7.35159 72.6066 7.35159C71.8049 7.35159 71.0642 7.4932 70.3844 7.77642C69.7221 8.04193 69.147 8.43136 68.659 8.94469C68.1884 9.45803 67.8137 10.0776 67.5348 10.8033C67.2734 11.5291 67.1427 12.3256 67.1427 13.193C67.1427 14.078 67.2734 14.8834 67.5348 15.6092C67.8137 16.3349 68.1884 16.9545 68.659 17.4678C69.147 17.9811 69.7221 18.3794 70.3844 18.6626C71.0642 18.9459 71.8049 19.0875 72.6066 19.0875C73.5478 19.0875 74.3669 18.937 75.0641 18.6361C75.7612 18.3352 76.3625 17.9192 76.868 17.3882L79.6391 20.2026C78.7503 21.0346 77.7307 21.6895 76.5804 22.1675C75.4475 22.6454 74.1316 22.8844 72.6327 22.8844Z" fill="white"/>
<path d="M76.5013 4.27158C75.3684 3.79365 74.07 3.55469 72.606 3.55469C72.606 3.55469 74.1329 4.33333 75.1996 5.95833C76.2662 7.58333 76.7627 9.0509 76.7627 9.0509L79.5078 6.23641C78.6538 5.40446 77.6516 4.74952 76.5013 4.27158Z" fill="url(#paint5_linear_459_936)"/>
<defs>
<linearGradient id="paint0_linear_459_936" x1="37.9903" y1="6.59326" x2="37.9903" y2="23.0209" gradientUnits="userSpaceOnUse">
<stop stop-color="#00E0CA"/>
<stop offset="1" stop-color="#5AFF4B"/>
</linearGradient>
<linearGradient id="paint1_linear_459_936" x1="14.1214" y1="5.41675" x2="14.1214" y2="11.7782" gradientUnits="userSpaceOnUse">
<stop stop-color="#00E0CA"/>
<stop offset="1" stop-color="#5AFF4B"/>
</linearGradient>
<linearGradient id="paint2_linear_459_936" x1="47.6248" y1="6.67334" x2="47.6248" y2="12.634" gradientUnits="userSpaceOnUse">
<stop stop-color="#00E0CA"/>
<stop offset="1" stop-color="#5AFF4B"/>
</linearGradient>
<linearGradient id="paint3_linear_459_936" x1="110.669" y1="6.35013" x2="110.909" y2="2.99471" gradientUnits="userSpaceOnUse">
<stop stop-color="#36F045"/>
<stop offset="1" stop-color="#06D799"/>
</linearGradient>
<linearGradient id="paint4_linear_459_936" x1="101.427" y1="7.02881" x2="101.427" y2="21.8011" gradientUnits="userSpaceOnUse">
<stop stop-color="#00E0CA"/>
<stop offset="1" stop-color="#5AFF4B"/>
</linearGradient>
<linearGradient id="paint5_linear_459_936" x1="75.3698" y1="9.21444" x2="75.6676" y2="4.67107" gradientUnits="userSpaceOnUse">
<stop stop-color="#36F045"/>
<stop offset="1" stop-color="#06D799"/>
</linearGradient>
</defs>
</svg>
